<mxfile host="app.diagrams.net" modified="2023-05-05T04:54:36.806Z" agent="Mozilla/5.0 (Windows NT 10.0; Win64; x64) AppleWebKit/537.36 (KHTML, like Gecko) Chrome/112.0.0.0 Safari/537.36 OPR/98.0.0.0" etag="vDwfUSa4Iv0ea86SKw2m" version="21.2.9" type="device">
  <diagram name="PÃ¡gina-1" id="vAKuMG59P0QD_fXukobK">
    <mxGraphModel dx="1127" dy="528" grid="1" gridSize="10" guides="1" tooltips="1" connect="1" arrows="1" fold="1" page="1" pageScale="1" pageWidth="827" pageHeight="1169" math="0" shadow="0">
      <root>
        <mxCell id="0" />
        <mxCell id="1" parent="0" />
        <mxCell id="d5xdGu9z0S5HSqe8wzU7-3" style="edgeStyle=orthogonalEdgeStyle;rounded=0;orthogonalLoop=1;jettySize=auto;html=1;entryX=0.5;entryY=0;entryDx=0;entryDy=0;" edge="1" parent="1" source="d5xdGu9z0S5HSqe8wzU7-1" target="d5xdGu9z0S5HSqe8wzU7-2">
          <mxGeometry relative="1" as="geometry" />
        </mxCell>
        <mxCell id="d5xdGu9z0S5HSqe8wzU7-24" value="xxxx" style="edgeLabel;html=1;align=center;verticalAlign=middle;resizable=0;points=[];" vertex="1" connectable="0" parent="d5xdGu9z0S5HSqe8wzU7-3">
          <mxGeometry x="-0.216" y="2" relative="1" as="geometry">
            <mxPoint as="offset" />
          </mxGeometry>
        </mxCell>
        <mxCell id="d5xdGu9z0S5HSqe8wzU7-1" value="E0" style="ellipse;whiteSpace=wrap;html=1;" vertex="1" parent="1">
          <mxGeometry x="270" y="310" width="120" height="80" as="geometry" />
        </mxCell>
        <mxCell id="d5xdGu9z0S5HSqe8wzU7-7" style="edgeStyle=orthogonalEdgeStyle;rounded=0;orthogonalLoop=1;jettySize=auto;html=1;entryX=0.5;entryY=0;entryDx=0;entryDy=0;" edge="1" parent="1" source="d5xdGu9z0S5HSqe8wzU7-2" target="d5xdGu9z0S5HSqe8wzU7-4">
          <mxGeometry relative="1" as="geometry" />
        </mxCell>
        <mxCell id="d5xdGu9z0S5HSqe8wzU7-29" value="xxx1" style="edgeLabel;html=1;align=center;verticalAlign=middle;resizable=0;points=[];" vertex="1" connectable="0" parent="d5xdGu9z0S5HSqe8wzU7-7">
          <mxGeometry x="-0.1322" y="-1" relative="1" as="geometry">
            <mxPoint as="offset" />
          </mxGeometry>
        </mxCell>
        <mxCell id="d5xdGu9z0S5HSqe8wzU7-2" value="E1" style="ellipse;whiteSpace=wrap;html=1;" vertex="1" parent="1">
          <mxGeometry x="270" y="430" width="120" height="80" as="geometry" />
        </mxCell>
        <mxCell id="d5xdGu9z0S5HSqe8wzU7-4" value="E2" style="ellipse;whiteSpace=wrap;html=1;" vertex="1" parent="1">
          <mxGeometry x="270" y="570" width="120" height="80" as="geometry" />
        </mxCell>
        <mxCell id="d5xdGu9z0S5HSqe8wzU7-8" value="E3" style="ellipse;whiteSpace=wrap;html=1;" vertex="1" parent="1">
          <mxGeometry x="150" y="720" width="120" height="80" as="geometry" />
        </mxCell>
        <mxCell id="d5xdGu9z0S5HSqe8wzU7-9" value="E4" style="ellipse;whiteSpace=wrap;html=1;" vertex="1" parent="1">
          <mxGeometry x="390" y="720" width="120" height="80" as="geometry" />
        </mxCell>
        <mxCell id="d5xdGu9z0S5HSqe8wzU7-15" value="" style="curved=1;endArrow=classic;html=1;rounded=0;entryX=0.02;entryY=0.605;entryDx=0;entryDy=0;entryPerimeter=0;exitX=0.5;exitY=0;exitDx=0;exitDy=0;" edge="1" parent="1" source="d5xdGu9z0S5HSqe8wzU7-8" target="d5xdGu9z0S5HSqe8wzU7-4">
          <mxGeometry width="50" height="50" relative="1" as="geometry">
            <mxPoint x="210" y="720" as="sourcePoint" />
            <mxPoint x="260" y="670" as="targetPoint" />
            <Array as="points">
              <mxPoint x="200" y="650" />
            </Array>
          </mxGeometry>
        </mxCell>
        <mxCell id="d5xdGu9z0S5HSqe8wzU7-34" value="0xx1" style="edgeLabel;html=1;align=center;verticalAlign=middle;resizable=0;points=[];" vertex="1" connectable="0" parent="d5xdGu9z0S5HSqe8wzU7-15">
          <mxGeometry x="0.2651" y="-10" relative="1" as="geometry">
            <mxPoint as="offset" />
          </mxGeometry>
        </mxCell>
        <mxCell id="d5xdGu9z0S5HSqe8wzU7-16" value="" style="curved=1;endArrow=classic;html=1;rounded=0;entryX=0.981;entryY=0.688;entryDx=0;entryDy=0;entryPerimeter=0;" edge="1" parent="1" target="d5xdGu9z0S5HSqe8wzU7-4">
          <mxGeometry width="50" height="50" relative="1" as="geometry">
            <mxPoint x="450" y="720" as="sourcePoint" />
            <mxPoint x="521" y="635" as="targetPoint" />
            <Array as="points">
              <mxPoint x="450" y="670" />
            </Array>
          </mxGeometry>
        </mxCell>
        <mxCell id="d5xdGu9z0S5HSqe8wzU7-39" value="x0x1" style="edgeLabel;html=1;align=center;verticalAlign=middle;resizable=0;points=[];" vertex="1" connectable="0" parent="d5xdGu9z0S5HSqe8wzU7-16">
          <mxGeometry x="0.1636" y="5" relative="1" as="geometry">
            <mxPoint as="offset" />
          </mxGeometry>
        </mxCell>
        <mxCell id="d5xdGu9z0S5HSqe8wzU7-17" value="1xx1" style="curved=1;endArrow=classic;html=1;rounded=0;exitX=0;exitY=1;exitDx=0;exitDy=0;entryX=0.632;entryY=0.003;entryDx=0;entryDy=0;entryPerimeter=0;" edge="1" parent="1" source="d5xdGu9z0S5HSqe8wzU7-4" target="d5xdGu9z0S5HSqe8wzU7-8">
          <mxGeometry x="-0.1373" width="50" height="50" relative="1" as="geometry">
            <mxPoint x="350" y="700" as="sourcePoint" />
            <mxPoint x="400" y="650" as="targetPoint" />
            <Array as="points">
              <mxPoint x="280" y="660" />
              <mxPoint x="270" y="680" />
              <mxPoint x="250" y="700" />
            </Array>
            <mxPoint as="offset" />
          </mxGeometry>
        </mxCell>
        <mxCell id="d5xdGu9z0S5HSqe8wzU7-19" value="" style="curved=1;endArrow=classic;html=1;rounded=0;exitX=0;exitY=1;exitDx=0;exitDy=0;entryX=1;entryY=1;entryDx=0;entryDy=0;" edge="1" parent="1" source="d5xdGu9z0S5HSqe8wzU7-9" target="d5xdGu9z0S5HSqe8wzU7-8">
          <mxGeometry width="50" height="50" relative="1" as="geometry">
            <mxPoint x="320" y="850" as="sourcePoint" />
            <mxPoint x="180" y="810" as="targetPoint" />
            <Array as="points">
              <mxPoint x="330" y="840" />
            </Array>
          </mxGeometry>
        </mxCell>
        <mxCell id="d5xdGu9z0S5HSqe8wzU7-42" value="x111" style="edgeLabel;html=1;align=center;verticalAlign=middle;resizable=0;points=[];" vertex="1" connectable="0" parent="d5xdGu9z0S5HSqe8wzU7-19">
          <mxGeometry x="0.1626" y="-20" relative="1" as="geometry">
            <mxPoint as="offset" />
          </mxGeometry>
        </mxCell>
        <mxCell id="d5xdGu9z0S5HSqe8wzU7-20" value="" style="curved=1;endArrow=classic;html=1;rounded=0;exitX=0.673;exitY=0.015;exitDx=0;exitDy=0;exitPerimeter=0;entryX=1;entryY=1;entryDx=0;entryDy=0;" edge="1" parent="1" source="d5xdGu9z0S5HSqe8wzU7-9" target="d5xdGu9z0S5HSqe8wzU7-2">
          <mxGeometry width="50" height="50" relative="1" as="geometry">
            <mxPoint x="490" y="640" as="sourcePoint" />
            <mxPoint x="540" y="590" as="targetPoint" />
            <Array as="points">
              <mxPoint x="500" y="570" />
            </Array>
          </mxGeometry>
        </mxCell>
        <mxCell id="d5xdGu9z0S5HSqe8wzU7-33" value="xxx0" style="edgeLabel;html=1;align=center;verticalAlign=middle;resizable=0;points=[];" vertex="1" connectable="0" parent="d5xdGu9z0S5HSqe8wzU7-20">
          <mxGeometry x="0.1964" y="31" relative="1" as="geometry">
            <mxPoint as="offset" />
          </mxGeometry>
        </mxCell>
        <mxCell id="d5xdGu9z0S5HSqe8wzU7-21" value="" style="curved=1;endArrow=classic;html=1;rounded=0;exitX=0;exitY=0;exitDx=0;exitDy=0;entryX=0;entryY=1;entryDx=0;entryDy=0;" edge="1" parent="1" source="d5xdGu9z0S5HSqe8wzU7-8" target="d5xdGu9z0S5HSqe8wzU7-2">
          <mxGeometry width="50" height="50" relative="1" as="geometry">
            <mxPoint x="129" y="713" as="sourcePoint" />
            <mxPoint x="30" y="480" as="targetPoint" />
            <Array as="points">
              <mxPoint x="140" y="550" />
            </Array>
          </mxGeometry>
        </mxCell>
        <mxCell id="d5xdGu9z0S5HSqe8wzU7-32" value="xxx0" style="edgeLabel;html=1;align=center;verticalAlign=middle;resizable=0;points=[];" vertex="1" connectable="0" parent="d5xdGu9z0S5HSqe8wzU7-21">
          <mxGeometry x="-0.2182" y="-30" relative="1" as="geometry">
            <mxPoint as="offset" />
          </mxGeometry>
        </mxCell>
        <mxCell id="d5xdGu9z0S5HSqe8wzU7-23" value="" style="curved=1;endArrow=classic;html=1;rounded=0;entryX=0.076;entryY=0.229;entryDx=0;entryDy=0;entryPerimeter=0;" edge="1" parent="1" source="d5xdGu9z0S5HSqe8wzU7-8" target="d5xdGu9z0S5HSqe8wzU7-9">
          <mxGeometry width="50" height="50" relative="1" as="geometry">
            <mxPoint x="370" y="750" as="sourcePoint" />
            <mxPoint x="420" y="700" as="targetPoint" />
            <Array as="points">
              <mxPoint x="320" y="700" />
            </Array>
          </mxGeometry>
        </mxCell>
        <mxCell id="d5xdGu9z0S5HSqe8wzU7-35" value="11x1" style="edgeLabel;html=1;align=center;verticalAlign=middle;resizable=0;points=[];" vertex="1" connectable="0" parent="d5xdGu9z0S5HSqe8wzU7-23">
          <mxGeometry x="0.0394" y="-14" relative="1" as="geometry">
            <mxPoint as="offset" />
          </mxGeometry>
        </mxCell>
        <mxCell id="d5xdGu9z0S5HSqe8wzU7-25" value="" style="curved=1;endArrow=classic;html=1;rounded=0;exitX=0.963;exitY=0.265;exitDx=0;exitDy=0;exitPerimeter=0;entryX=0.74;entryY=0.055;entryDx=0;entryDy=0;entryPerimeter=0;" edge="1" parent="1" source="d5xdGu9z0S5HSqe8wzU7-4" target="d5xdGu9z0S5HSqe8wzU7-4">
          <mxGeometry width="50" height="50" relative="1" as="geometry">
            <mxPoint x="400" y="590" as="sourcePoint" />
            <mxPoint x="450" y="540" as="targetPoint" />
            <Array as="points">
              <mxPoint x="410" y="590" />
              <mxPoint x="410" y="550" />
              <mxPoint x="360" y="550" />
            </Array>
          </mxGeometry>
        </mxCell>
        <mxCell id="d5xdGu9z0S5HSqe8wzU7-26" value="0xx1" style="edgeLabel;html=1;align=center;verticalAlign=middle;resizable=0;points=[];" vertex="1" connectable="0" parent="d5xdGu9z0S5HSqe8wzU7-25">
          <mxGeometry x="-0.2229" y="2" relative="1" as="geometry">
            <mxPoint as="offset" />
          </mxGeometry>
        </mxCell>
        <mxCell id="d5xdGu9z0S5HSqe8wzU7-27" value="" style="curved=1;endArrow=classic;html=1;rounded=0;entryX=0.753;entryY=0.045;entryDx=0;entryDy=0;entryPerimeter=0;exitX=0.969;exitY=0.275;exitDx=0;exitDy=0;exitPerimeter=0;" edge="1" parent="1">
          <mxGeometry width="50" height="50" relative="1" as="geometry">
            <mxPoint x="385.91999999999996" y="452" as="sourcePoint" />
            <mxPoint x="360" y="433.6" as="targetPoint" />
            <Array as="points">
              <mxPoint x="413.64" y="440" />
              <mxPoint x="399.64" y="410" />
              <mxPoint x="369.64" y="410" />
            </Array>
          </mxGeometry>
        </mxCell>
        <mxCell id="d5xdGu9z0S5HSqe8wzU7-28" value="xxx0" style="edgeLabel;html=1;align=center;verticalAlign=middle;resizable=0;points=[];" vertex="1" connectable="0" parent="d5xdGu9z0S5HSqe8wzU7-27">
          <mxGeometry x="-0.2229" y="2" relative="1" as="geometry">
            <mxPoint as="offset" />
          </mxGeometry>
        </mxCell>
        <mxCell id="d5xdGu9z0S5HSqe8wzU7-30" value="" style="curved=1;endArrow=classic;html=1;rounded=0;exitX=0.253;exitY=0.05;exitDx=0;exitDy=0;exitPerimeter=0;entryX=0.307;entryY=0.955;entryDx=0;entryDy=0;entryPerimeter=0;" edge="1" parent="1" source="d5xdGu9z0S5HSqe8wzU7-4" target="d5xdGu9z0S5HSqe8wzU7-2">
          <mxGeometry width="50" height="50" relative="1" as="geometry">
            <mxPoint x="260" y="560" as="sourcePoint" />
            <mxPoint x="310" y="510" as="targetPoint" />
            <Array as="points">
              <mxPoint x="260" y="540" />
            </Array>
          </mxGeometry>
        </mxCell>
        <mxCell id="d5xdGu9z0S5HSqe8wzU7-31" value="xxx0" style="edgeLabel;html=1;align=center;verticalAlign=middle;resizable=0;points=[];" vertex="1" connectable="0" parent="d5xdGu9z0S5HSqe8wzU7-30">
          <mxGeometry x="0.1687" y="-6" relative="1" as="geometry">
            <mxPoint as="offset" />
          </mxGeometry>
        </mxCell>
        <mxCell id="d5xdGu9z0S5HSqe8wzU7-37" value="" style="curved=1;endArrow=classic;html=1;rounded=0;exitX=0;exitY=0.5;exitDx=0;exitDy=0;" edge="1" parent="1" source="d5xdGu9z0S5HSqe8wzU7-8">
          <mxGeometry width="50" height="50" relative="1" as="geometry">
            <mxPoint x="180" y="880" as="sourcePoint" />
            <mxPoint x="170" y="790" as="targetPoint" />
            <Array as="points">
              <mxPoint x="130" y="760" />
              <mxPoint x="110" y="780" />
              <mxPoint x="120" y="800" />
              <mxPoint x="130" y="810" />
              <mxPoint x="160" y="810" />
            </Array>
          </mxGeometry>
        </mxCell>
        <mxCell id="d5xdGu9z0S5HSqe8wzU7-38" value="10x1" style="edgeLabel;html=1;align=center;verticalAlign=middle;resizable=0;points=[];" vertex="1" connectable="0" parent="d5xdGu9z0S5HSqe8wzU7-37">
          <mxGeometry x="-0.0712" relative="1" as="geometry">
            <mxPoint as="offset" />
          </mxGeometry>
        </mxCell>
        <mxCell id="d5xdGu9z0S5HSqe8wzU7-40" value="" style="curved=1;endArrow=classic;html=1;rounded=0;exitX=1.017;exitY=0.42;exitDx=0;exitDy=0;exitPerimeter=0;entryX=1.017;entryY=0.42;entryDx=0;entryDy=0;entryPerimeter=0;" edge="1" parent="1" target="d5xdGu9z0S5HSqe8wzU7-9">
          <mxGeometry width="50" height="50" relative="1" as="geometry">
            <mxPoint x="500" y="734" as="sourcePoint" />
            <mxPoint x="527" y="751" as="targetPoint" />
            <Array as="points">
              <mxPoint x="501" y="710" />
              <mxPoint x="551" y="710" />
              <mxPoint x="550" y="754" />
            </Array>
          </mxGeometry>
        </mxCell>
        <mxCell id="d5xdGu9z0S5HSqe8wzU7-41" value="x101" style="edgeLabel;html=1;align=center;verticalAlign=middle;resizable=0;points=[];" vertex="1" connectable="0" parent="d5xdGu9z0S5HSqe8wzU7-40">
          <mxGeometry x="-0.2229" y="2" relative="1" as="geometry">
            <mxPoint as="offset" />
          </mxGeometry>
        </mxCell>
      </root>
    </mxGraphModel>
  </diagram>
</mxfile>
